HIERARCHY
ROOT Hips
{
	OFFSET 0.000000 0.000000 0.000000
	CHANNELS 6 Xposition Yposition Zposition Xrotation Yrotation Zrotation
	JOINT LeftUpLeg
	{
		OFFSET 3.317160 0.000000 0.000000
		CHANNELS 6 Xposition Yposition Zposition Xrotation Yrotation Zrotation
		JOINT LeftLeg
		{
			OFFSET 0.000000 -16.621309 0.000000
			CHANNELS 6 Xposition Yposition Zposition Xrotation Yrotation Zrotation
			JOINT LeftFoot
			{
				OFFSET 0.000000 -16.132090 0.000000
				CHANNELS 6 Xposition Yposition Zposition Xrotation Yrotation Zrotation
				JOINT LeftToeBase
				{
					OFFSET 0.000000 -1.705429 6.364750
					CHANNELS 6 Xposition Yposition Zposition Xrotation Yrotation Zrotation
					End Site
					{
						OFFSET 0.000000 0.000000 2.952750
					}
				}
			}
		}
	}
	JOINT RightUpLeg
	{
		OFFSET -3.317160 0.000000 0.000000
		CHANNELS 6 Xposition Yposition Zposition Xrotation Yrotation Zrotation
		JOINT RightLeg
		{
			OFFSET 0.000000 -16.621309 0.000000
			CHANNELS 6 Xposition Yposition Zposition Xrotation Yrotation Zrotation
			JOINT RightFoot
			{
				OFFSET 0.000000 -16.132090 0.000000
				CHANNELS 6 Xposition Yposition Zposition Xrotation Yrotation Zrotation
				JOINT RightToeBase
				{
					OFFSET 0.000000 -1.705429 6.364750
					CHANNELS 6 Xposition Yposition Zposition Xrotation Yrotation Zrotation
					End Site
					{
						OFFSET 0.000000 0.000000 2.952750
					}
				}
			}
		}
	}
	JOINT Spine
	{
		OFFSET 0.000000 0.039370 0.000000
		CHANNELS 6 Xposition Yposition Zposition Xrotation Yrotation Zrotation
		JOINT Spine1
		{
			OFFSET 0.000000 9.216790 0.000000
			CHANNELS 6 Xposition Yposition Zposition Xrotation Yrotation Zrotation
			JOINT Neck
			{
				OFFSET 0.000000 8.819270 0.000000
				CHANNELS 3 Xrotation Yrotation Zrotation
				JOINT Head
				{
					OFFSET 0.000000 6.846361 0.000000
					CHANNELS 6 Xposition Yposition Zposition Xrotation Yrotation Zrotation
					End Site
					{
						OFFSET 0.000000 4.527550 0.000000
					}
				}
			}
			JOINT LeftShoulder
			{
				OFFSET 0.000000 8.819270 0.000000
				CHANNELS 3 Xrotation Yrotation Zrotation
				JOINT LeftArm
				{
					OFFSET 7.313730 -0.000031 0.000000
					CHANNELS 6 Xposition Yposition Zposition Xrotation Yrotation Zrotation
					JOINT LeftForeArm
					{
						OFFSET 10.822620 -0.000040 0.000000
						CHANNELS 6 Xposition Yposition Zposition Xrotation Yrotation Zrotation
						JOINT LeftHand
						{
							OFFSET 10.147810 -0.000040 0.000000
							CHANNELS 6 Xposition Yposition Zposition Xrotation Yrotation Zrotation
							JOINT LeftHandThumb
							{
								OFFSET 0.000000 0.000000 0.000000
								CHANNELS 6 Xposition Yposition Zposition Xrotation Yrotation Zrotation
								End Site
								{
									OFFSET 0.000000 0.000000 3.937000
								}
							}
							JOINT L_Wrist_End
							{
								OFFSET 3.937000 -0.000010 0.000000
								CHANNELS 6 Xposition Yposition Zposition Xrotation Yrotation Zrotation
								End Site
								{
									OFFSET 0.000000 0.100000 0.000000
								}
							}
						}
					}
				}
			}
			JOINT RightShoulder
			{
				OFFSET 0.000000 8.819270 0.000000
				CHANNELS 3 Xrotation Yrotation Zrotation
				JOINT RightArm
				{
					OFFSET -7.313730 -0.000031 0.000000
					CHANNELS 6 Xposition Yposition Zposition Xrotation Yrotation Zrotation
					JOINT RightForeArm
					{
						OFFSET -10.822620 -0.000040 0.000000
						CHANNELS 6 Xposition Yposition Zposition Xrotation Yrotation Zrotation
						JOINT RightHand
						{
							OFFSET -10.147810 -0.000040 0.000000
							CHANNELS 6 Xposition Yposition Zposition Xrotation Yrotation Zrotation
							JOINT RightHandThumb
							{
								OFFSET 0.000000 0.000000 0.000000
								CHANNELS 6 Xposition Yposition Zposition Xrotation Yrotation Zrotation
								End Site
								{
									OFFSET 0.000000 0.000000 3.937000
								}
							}
							JOINT R_Wrist_End
							{
								OFFSET -5.393688 -0.000019 0.000000
								CHANNELS 6 Xposition Yposition Zposition Xrotation Yrotation Zrotation
								End Site
								{
									OFFSET 0.000000 0.100000 0.000000
								}
							}
						}
					}
				}
			}
		}
	}
}
MOTION
Frames: 4
Frame Time: 0.041667
-0.223889 33.824184 0.569633 -3.061445 -5.995485 -9.481429 3.317156 0.000000 -0.000002 -15.236098 -26.714880 15.643338 0.000004 -16.621271 -0.000002 53.619273 -1.400454 -1.142388 -0.000035 -16.132046 0.000008 13.571293 18.733997 -9.572957 0.000002 -1.705429 6.364748 -0.000001 -0.000000 0.000001 -3.317152 -0.000001 -0.000001 1.146762 9.222991 14.065549 -0.000002 -16.621277 -0.000001 5.723725 0.186882 1.880630 0.000011 -16.132034 -0.000210 -5.857888 -5.706117 -6.715132 -0.000002 -1.705429 6.364736 -0.165430 0.322938 0.019929 0.000002 0.039350 -0.000001 -0.000018 0.000001 0.000001 -0.122248 9.206306 0.007200 0.884748 1.689061 10.063785 0.638278 -0.346423 1.563093 -0.000001 6.846354 0.000001 0.638271 -0.346423 1.563088 1.477173 -4.010382 -17.566601 7.313728 -0.000032 0.000002 3.484152 6.583410 -65.943045 10.822626 -0.000038 -0.000001 -0.286756 -21.334639 -0.001245 10.147804 -0.000038 0.000000 -0.000000 0.000001 -0.000000 -0.000002 0.000002 0.000000 -0.000000 0.000001 -0.000001 3.937005 -0.000007 0.000000 0.000000 0.000003 -0.000001 -0.514475 15.053804 20.018465 -7.313726 -0.000051 0.000000 -3.468616 -14.776773 57.646469 -10.822613 -0.000025 -0.000001 -0.514734 15.628062 0.005134 -10.147812 -0.000042 0.000001 -0.000000 -0.000002 0.000001 -0.000004 0.000000 0.000002 0.000001 -0.000000 -0.000001 -5.393692 -0.000018 0.000001 0.000001 -0.000002 -0.000001 
-0.226672 33.823780 0.568404 -3.060708 -5.965093 -9.467746 3.317151 0.000016 -0.000001 -15.234708 -26.714793 15.644927 0.000004 -16.621250 0.000000 53.621172 -1.400469 -1.142192 -0.000045 -16.132065 0.000012 13.572645 18.732922 -9.572320 0.000000 -1.705429 6.364748 0.000000 -0.000000 -0.000003 -3.317153 0.000013 -0.000000 1.132565 9.243235 14.067728 0.000001 -16.621256 0.000002 5.735348 0.187493 1.880515 0.000009 -16.132093 -0.000213 -5.860623 -5.707851 -6.715729 0.000001 -1.705433 6.364738 -0.154125 0.318954 0.009627 -0.000000 0.039356 -0.000001 -0.000005 0.000001 -0.000004 -0.121989 9.206279 0.007229 0.899469 1.695293 10.047563 0.638140 -0.346558 1.563126 -0.000001 6.846355 -0.000003 0.638116 -0.346559 1.563123 1.476666 -4.024542 -17.565925 7.313746 -0.000035 0.000001 3.496849 6.610741 -65.948680 10.822633 -0.000033 0.000001 -0.286739 -21.335790 -0.001270 10.147812 -0.000041 0.000000 0.000000 0.000000 0.000000 0.000000 0.000002 0.000001 0.000000 0.000000 -0.000000 3.937000 -0.000005 0.000003 0.000001 0.000000 0.000000 -0.514494 15.055716 20.018125 -7.313729 -0.000045 0.000002 -3.469120 -14.775528 57.646687 -10.822608 -0.000022 -0.000001 -0.514719 15.647801 0.005069 -10.147802 -0.000038 -0.000000 0.000000 -0.000003 0.000001 0.000000 0.000000 -0.000001 0.000000 -0.000001 -0.000001 -5.393689 -0.000015 -0.000001 0.000000 0.000001 0.000001 
-0.229384 33.823376 0.567077 -3.059946 -5.934522 -9.453952 3.317153 0.000013 -0.000001 -15.255921 -26.704414 15.640104 0.000005 -16.621260 0.000005 53.623402 -1.400266 -1.142001 -0.000048 -16.132067 0.000012 13.573480 18.678158 -9.541294 0.000000 -1.705429 6.364749 -0.000001 0.000001 0.000003 -3.317158 0.000013 -0.000000 1.124750 9.265301 14.068653 -0.000000 -16.621284 0.000001 5.733528 0.187748 1.880421 0.000012 -16.132048 -0.000219 -5.870191 -5.792635 -6.721252 0.000001 -1.705433 6.364745 -0.149130 0.311502 0.003487 -0.000001 0.039368 -0.000000 -0.000018 -0.000000 0.000005 -0.121735 9.206324 0.007266 0.914196 1.701298 10.031729 0.628434 -0.355151 1.570579 -0.000000 6.846373 -0.000000 0.628428 -0.355150 1.570576 1.476163 -4.038699 -17.565227 7.313731 -0.000019 0.000001 3.509646 6.638108 -65.954328 10.822635 -0.000031 0.000000 -0.286748 -21.336437 -0.001248 10.147810 -0.000040 -0.000000 0.000000 0.000002 -0.000000 -0.000002 0.000001 0.000001 0.000000 0.000000 0.000001 3.936996 -0.000009 0.000000 0.000000 0.000000 0.000001 -0.514519 15.057611 20.017789 -7.313738 -0.000044 -0.000001 -3.479352 -14.714203 57.655485 -10.822600 -0.000016 -0.000002 -0.514722 15.668085 0.005147 -10.147810 -0.000039 0.000001 0.000000 -0.000001 -0.000000 0.000003 0.000001 0.000001 0.000001 0.000001 -0.000002 -5.393684 -0.000017 0.000001 0.000001 0.000001 0.000000 
-0.232087 33.822964 0.565751 -3.059212 -5.903931 -9.440170 3.317162 0.000014 -0.000001 -15.277555 -26.693897 15.635271 0.000002 -16.621264 -0.000001 53.625639 -1.400048 -1.141815 -0.000047 -16.132072 0.000011 13.574414 18.622248 -9.509668 -0.000001 -1.705430 6.364749 0.000005 -0.000002 -0.000003 -3.317151 0.000010 0.000000 1.116782 9.287334 14.069621 0.000001 -16.621231 -0.000000 5.731966 0.187963 1.880362 0.000001 -16.132084 -0.000206 -5.879428 -5.879178 -6.726848 0.000002 -1.705438 6.364737 -0.143462 0.304513 -0.002660 0.000000 0.039355 -0.000001 -0.000014 -0.000001 0.000002 -0.121481 9.206323 0.007302 0.929701 1.706169 10.044200 0.618507 -0.363891 1.578068 0.000001 6.846361 0.000001 0.618503 -0.363893 1.578052 1.475652 -4.052837 -17.564520 7.313729 -0.000038 0.000005 3.522481 6.665487 -65.959956 10.822604 -0.000016 0.000000 -0.286738 -21.301711 -0.001256 10.147812 -0.000038 -0.000000 0.000000 -0.000001 -0.000001 0.000002 -0.000000 -0.000000 -0.000000 0.000001 -0.000001 3.937001 -0.000008 -0.000000 -0.000000 0.000001 -0.000001 -0.514524 15.059495 20.017403 -7.313725 -0.000056 0.000004 -3.489536 -14.651787 57.664562 -10.822598 -0.000012 -0.000001 -0.514728 15.688991 0.005083 -10.147814 -0.000039 0.000001 0.000000 -0.000001 -0.000001 -0.000002 0.000000 0.000002 0.000000 0.000001 -0.000001 -5.393688 -0.000016 0.000002 0.000001 -0.000003 -0.000002 
